<svg width="90" height="90" fill="none" xmlns="http://www.w3.org/2000/svg"><path d="M4 4.5h81.8v81H4.1v-81ZM.5 89.2h89.2V.7H.4v88.5Zm63-45.8 2.8-.1v-.6c0-2-.9-5.9-4.7-5.9-3.6 0-5.1 3.2-5.5 6.6h7.5ZM56 48.5c.1 5.2 2.5 8.6 8.1 8.6 2.2 0 4.1-.3 6-1.2.4 0 .5 0 .5.3V61c0 .4 0 .6-.3.8-2 1-4.5 1.4-7.5 1.4-9.8 0-13.5-7.3-13.5-15.6 0-8.9 4.5-16.2 12.5-16.2 8.1 0 11 7 11 12.6 0 1.8-.1 3.3-.3 4-.1.3-.2.4-.5.5-.8 0-3 .3-6.2.3h-9.8v-.2Zm-20-3.8c-1-4.2-3.5-13.4-4.4-17.8-.9 4.4-2.9 12-4.4 17.8H36Zm-10.3 6.1-3 11.3c0 .3-.1.5-.5.5h-5.5c-.4 0-.5-.2-.4-.6l10.6-37.6c.2-.7.3-1.2.3-3.1 0-.3.2-.4.4-.4h7.8c.2 0 .3 0 .4.4l11.8 40.8c0 .3 0 .5-.3.5h-6.1c-.3 0-.5-.2-.6-.4l-3-11.4h-12Z" fill="#D8A1FF"/></svg>