<svg width="90" height="90" fill="none" xmlns="http://www.w3.org/2000/svg"><path d="M4 4.5h81.8v81H4v-81ZM.3 89.2h89.2V.7H.3v88.5Zm58.4-57c0-.3.1-.4.5-.4H65c.3 0 .5.1.5.4v30c0 .2-.1.4-.5.4h-5.8c-.3 0-.4-.2-.4-.5V32.2Zm-.4-8.6c0-2.4 1.7-3.8 3.8-3.8 2.3 0 3.8 1.5 3.8 3.8 0 2.5-1.6 3.9-3.9 3.9-2.1 0-3.7-1.3-3.7-3.9Zm-16.7 21c-1-4.1-3.5-13.3-4.4-17.7H37c-.8 4.4-2.8 12-4.3 17.8h8.8Zm-10.3 6.2-3 11.4c0 .3-.1.4-.5.4h-5.5c-.4 0-.4-.2-.4-.6l10.6-37.6c.2-.7.3-1.3.4-3.2 0-.2 0-.4.3-.4H41c.2 0 .4.1.4.4l11.9 40.9c0 .3 0 .5-.4.5h-6.1c-.3 0-.5-.1-.6-.4l-3-11.4h-12Z" fill="#FF7F18"/></svg>