<svg width="90" height="90" fill="none" xmlns="http://www.w3.org/2000/svg"><path d="M4 4.4h81.6v80.9H3.9V4.4ZM.1 89.1h89V.6H.3v88.5Zm60-52.2c-2.8 0-3.8 1.5-3.8 2.8 0 1.4.6 2.3 4.6 4.4 5.8 2.8 7.6 5.6 7.6 9.6 0 6-4.5 9.3-10.7 9.3-3.2 0-6-.6-7.6-1.6-.2 0-.3-.3-.3-.6v-5.6c0-.3.2-.4.5-.3 2.3 1.6 5 2.3 7.4 2.3 3 0 4.2-1.3 4.2-3 0-1.3-.8-2.5-4.6-4.5-5.3-2.6-7.5-5.2-7.5-9.5 0-4.9 3.8-9 10.3-9 3.2 0 5.4.5 6.6 1.1.3.2.4.5.4.8v5.1c0 .3-.2.5-.6.4-1.6-1-4-1.7-6.4-1.7Zm-31.8 4.5h3c4.3 0 8.4-1.5 8.4-7.5 0-4.8-3-7.2-7.9-7.2a68 68 0 0 0-3.5.1v14.6Zm-6.7-20c0-.3.6-.5.9-.5l9.5-.2c10.3 0 14.3 5.8 14.3 13 0 9.7-6.8 13.8-15.2 13.8h-2.9v14.4c0 .3 0 .5-.4.5h-5.7c-.3 0-.5-.1-.5-.5V21.4Z" fill="#31C5F0"/></svg>